<svg width="68" height="72" xmlns="http://www.w3.org/2000/svg" xmlns:xlink="http://www.w3.org/1999/xlink" xmlns:svgjs="http://svgjs.com/svgjs" viewBox="927 283 68 72"><svg width="68" height="67" xmlns="http://www.w3.org/2000/svg" xmlns:xlink="http://www.w3.org/1999/xlink" xmlns:svgjs="http://svgjs.com/svgjs" viewBox="0.212 0 67.576 67" fill="none" x="927" y="283"><svg xmlns="http://www.w3.org/2000/svg" xmlns:xlink="http://www.w3.org/1999/xlink" width="68" height="67" viewBox="2 2 67 66.429"><path paint-order="stroke fill markers" d="M35.5 2C54.002 2 69 16.87 69 35.214S54.002 68.43 35.5 68.43C16.998 68.429 2 53.558 2 35.214S16.998 2 35.5 2z"/></svg></svg><svg width="59" height="56" xmlns="http://www.w3.org/2000/svg" xmlns:xlink="http://www.w3.org/1999/xlink" xmlns:svgjs="http://svgjs.com/svgjs" viewBox="0.16 0 58.68 56" fill="none" x="932" y="297"><svg xmlns="http://www.w3.org/2000/svg" xmlns:xlink="http://www.w3.org/1999/xlink" width="59" height="56" viewBox="1.046 1.86 57.629 54.997"><path paint-order="stroke fill markers" d="M58.675 56.857L29.86 1.86 1.046 56.857h57.629z"/></svg></svg><svg width="8" height="8" xmlns="http://www.w3.org/2000/svg" xmlns:xlink="http://www.w3.org/1999/xlink" xmlns:svgjs="http://svgjs.com/svgjs" viewBox="0 0.034 8 7.932" fill="#fff" x="957" y="347"><svg xmlns="http://www.w3.org/2000/svg" xmlns:xlink="http://www.w3.org/1999/xlink" width="8" height="8" viewBox="1.258 1.857 7.204 7.143"><path paint-order="stroke fill markers" fill-rule="evenodd" d="M4.86 1.857c1.99 0 3.602 1.599 3.602 3.572 0 1.972-1.612 3.57-3.602 3.57-1.99 0-3.602-1.598-3.602-3.57 0-1.973 1.613-3.572 3.602-3.572z"/></svg></svg><svg width="8" height="8" xmlns="http://www.w3.org/2000/svg" xmlns:xlink="http://www.w3.org/1999/xlink" xmlns:svgjs="http://svgjs.com/svgjs" viewBox="0 0.034 8 7.932" fill="#fff" x="984" y="347"><svg xmlns="http://www.w3.org/2000/svg" xmlns:xlink="http://www.w3.org/1999/xlink" width="8" height="8" viewBox="1.914 1.857 7.204 7.143"><path paint-order="stroke fill markers" fill-rule="evenodd" d="M5.516 1.857c1.99 0 3.602 1.599 3.602 3.572 0 1.972-1.613 3.57-3.602 3.57-1.99 0-3.602-1.598-3.602-3.57 0-1.973 1.613-3.572 3.602-3.572z"/></svg></svg><svg width="8" height="8" xmlns="http://www.w3.org/2000/svg" xmlns:xlink="http://www.w3.org/1999/xlink" xmlns:svgjs="http://svgjs.com/svgjs" viewBox="0 0.034 8 7.932" fill="#fff" x="928" y="347"><svg xmlns="http://www.w3.org/2000/svg" width="8" height="8" viewBox="1.441 1.857 7.204 7.143"><path paint-order="stroke fill markers" fill-rule="evenodd" d="M5.043 1.857c1.99 0 3.602 1.599 3.602 3.572 0 1.972-1.613 3.57-3.602 3.57-1.99 0-3.602-1.598-3.602-3.57 0-1.973 1.613-3.572 3.602-3.572z"/></svg></svg></svg>